<!-- Generated by IcoMoon.io -->
<svg version="1.1" xmlns="http://www.w3.org/2000/svg" width="20" height="20" viewBox="0 0 20 20">
<title>applemusic</title>
<path d="M19.997 5.103c0-0.615-0.054-1.225-0.2-1.825-0.264-1.092-0.885-1.925-1.817-2.536-0.478-0.312-1.003-0.505-1.564-0.606-0.431-0.077-0.865-0.112-1.303-0.125-0.033-0.003-0.069-0.008-0.103-0.011h-10.020c-0.127 0.008-0.252 0.014-0.379 0.022-0.623 0.036-1.242 0.103-1.827 0.334-1.113 0.442-1.917 1.21-2.387 2.317-0.16 0.373-0.243 0.771-0.302 1.173-0.047 0.327-0.073 0.654-0.083 0.983 0 0.027-0.006 0.052-0.008 0.077v10.186c0.008 0.117 0.014 0.236 0.022 0.353 0.042 0.679 0.128 1.353 0.414 1.977 0.542 1.183 1.448 1.961 2.695 2.335 0.35 0.106 0.713 0.156 1.078 0.19 0.462 0.044 0.925 0.050 1.389 0.050h9.192c0.438 0 0.873-0.028 1.308-0.083 0.686-0.088 1.331-0.292 1.913-0.675 0.7-0.461 1.227-1.073 1.567-1.84 0.155-0.35 0.244-0.725 0.308-1.103 0.094-0.563 0.115-1.132 0.114-1.7-0.002-3.167 0-6.329-0.005-9.494zM14.645 8.428v4.76c0 0.348-0.048 0.689-0.203 1.005-0.242 0.492-0.633 0.802-1.157 0.95-0.292 0.083-0.588 0.131-0.892 0.144-0.792 0.037-1.477-0.5-1.619-1.28-0.118-0.644 0.189-1.353 0.865-1.685 0.269-0.133 0.558-0.208 0.848-0.27 0.315-0.068 0.632-0.127 0.945-0.2 0.228-0.053 0.381-0.192 0.425-0.43 0.012-0.052 0.017-0.108 0.017-0.161 0-1.512 0-3.025-0.002-4.536 0-0.052-0.008-0.104-0.022-0.154-0.033-0.125-0.125-0.202-0.253-0.195-0.133 0.008-0.265 0.029-0.396 0.055-0.633 0.125-1.267 0.253-1.9 0.38l-3.083 0.623c-0.013 0.002-0.027 0.008-0.040 0.011-0.231 0.064-0.314 0.169-0.325 0.408-0.002 0.035 0 0.072 0 0.108-0.002 2.168 0 4.337-0.002 6.504 0 0.35-0.039 0.697-0.179 1.022-0.232 0.533-0.642 0.867-1.195 1.027-0.292 0.083-0.592 0.133-0.896 0.143-0.8 0.030-1.463-0.5-1.6-1.287-0.117-0.677 0.192-1.404 0.962-1.729 0.298-0.125 0.608-0.193 0.923-0.258 0.239-0.050 0.479-0.097 0.717-0.147 0.319-0.069 0.486-0.269 0.5-0.595v-0.125c0-2.467 0-4.935 0.002-7.402 0-0.103 0.011-0.208 0.035-0.308 0.058-0.237 0.228-0.373 0.455-0.432 0.212-0.055 0.429-0.093 0.645-0.137 0.611-0.125 1.222-0.247 1.833-0.37l1.892-0.383c0.558-0.112 1.117-0.225 1.675-0.336 0.183-0.036 0.369-0.073 0.553-0.088 0.258-0.021 0.436 0.142 0.462 0.402 0.007 0.061 0.010 0.123 0.010 0.186 0.002 1.592 0.002 3.185 0.001 4.779z"></path>
</svg>
