<!-- Generated by IcoMoon.io -->
<svg version="1.1" xmlns="http://www.w3.org/2000/svg" width="20" height="20" viewBox="0 0 20 20">
<title>arrow-shuffle</title>
<path d="M3.333 7.5h2.917c0.613 0 1.161 0.326 1.543 0.834 0.271-0.503 0.607-0.969 0.992-1.385-0.669-0.686-1.555-1.116-2.535-1.116h-2.917c-0.461 0-0.833 0.373-0.833 0.833s0.373 0.833 0.833 0.833z"></path>
<path d="M9.738 10.092c0.459-1.381 1.88-2.592 3.041-2.592h1.532l-1.078 1.078c-0.326 0.326-0.326 0.852 0 1.178 0.163 0.163 0.376 0.244 0.589 0.244s0.427-0.082 0.589-0.244l3.089-3.089-3.089-3.089c-0.326-0.326-0.853-0.326-1.178 0s-0.326 0.852 0 1.178l1.078 1.078h-1.532c-1.895 0-3.926 1.639-4.623 3.732l-0.393 1.176c-0.534 1.605-1.727 2.592-2.346 2.592h-2.083c-0.461 0-0.833 0.373-0.833 0.833s0.373 0.833 0.833 0.833h2.083c1.531 0 3.219-1.604 3.928-3.732l0.393-1.175z"></path>
<path d="M13.232 11.078c-0.326 0.326-0.326 0.852 0 1.178l1.078 1.078h-1.948c-1.057 0-1.942-0.742-2.242-1.757-0.213 0.625-0.523 1.249-0.908 1.821 0.738 0.968 1.869 1.603 3.151 1.603h1.948l-1.078 1.078c-0.326 0.326-0.326 0.852 0 1.178 0.163 0.163 0.376 0.244 0.589 0.244s0.427-0.082 0.589-0.244l3.089-3.089-3.089-3.089c-0.326-0.326-0.853-0.326-1.178 0z"></path>
</svg>
