<!-- Generated by IcoMoon.io -->
<svg version="1.1" xmlns="http://www.w3.org/2000/svg" width="20" height="20" viewBox="0 0 20 20">
<title>bluetooth_searching</title>
<path d="M10.742 13.594l-1.563-1.602v3.164zM9.18 4.844v3.164l1.563-1.602zM13.086 6.406l-3.594 3.594 3.594 3.594-4.766 4.727h-0.82v-6.328l-3.828 3.828-1.172-1.172 4.648-4.648-4.648-4.648 1.172-1.172 3.828 3.828v-6.328h0.82zM16.289 5.586q1.211 1.953 1.211 4.336 0 2.344-1.289 4.414l-0.977-0.977q0.82-1.641 0.82-3.359t-0.82-3.359zM11.875 10l1.914-1.914q0.391 0.977 0.391 1.914 0 0.977-0.391 1.953z"></path>
</svg>
