<!-- Generated by IcoMoon.io -->
<svg version="1.1" xmlns="http://www.w3.org/2000/svg" width="20" height="20" viewBox="0 0 20 20">
<title>feed</title>
<path d="M8.427 10c0-0.869 0.704-1.573 1.573-1.573s1.573 0.704 1.573 1.573c0 0.869-0.704 1.573-1.573 1.573s-1.573-0.704-1.573-1.573zM11.873 6.54c1.227 0.666 2.061 1.966 2.061 3.46s-0.833 2.794-2.061 3.46c0.542-0.862 0.881-2.093 0.881-3.46s-0.339-2.598-0.881-3.46zM7.246 10c0 1.367 0.339 2.598 0.881 3.46-1.227-0.666-2.061-1.966-2.061-3.46s0.833-2.794 2.061-3.46c-0.542 0.862-0.881 2.093-0.881 3.46zM4.886 10c0 2.113 0.669 4.010 1.729 5.307-1.749-1.118-2.909-3.077-2.909-5.307s1.16-4.189 2.909-5.307c-1.060 1.297-1.729 3.194-1.729 5.307zM13.385 4.693c1.749 1.118 2.909 3.077 2.909 5.307s-1.16 4.189-2.909 5.307c1.060-1.297 1.729-3.194 1.729-5.307s-0.669-4.010-1.729-5.307z"></path>
</svg>
