<!-- Generated by IcoMoon.io -->
<svg version="1.1" xmlns="http://www.w3.org/2000/svg" width="20" height="20" viewBox="0 0 20 20">
<title>format_list_bulleted</title>
<path d="M5.82 4.18h11.68v1.641h-11.68v-1.641zM5.82 10.82v-1.641h11.68v1.641h-11.68zM5.82 15.82v-1.641h11.68v1.641h-11.68zM3.32 13.75q0.508 0 0.879 0.371t0.371 0.879-0.371 0.879-0.879 0.371-0.879-0.371-0.371-0.879 0.371-0.879 0.879-0.371zM3.32 3.75q0.508 0 0.879 0.352t0.371 0.898-0.371 0.898-0.879 0.352-0.879-0.352-0.371-0.898 0.371-0.898 0.879-0.352zM3.32 8.75q0.508 0 0.879 0.352t0.371 0.898-0.371 0.898-0.879 0.352-0.879-0.352-0.371-0.898 0.371-0.898 0.879-0.352z"></path>
</svg>
