<!-- Generated by IcoMoon.io -->
<svg version="1.1" xmlns="http://www.w3.org/2000/svg" width="20" height="20" viewBox="0 0 20 20">
<title>heart1</title>
<path d="M16.777 4.431c0.733 0.734 1.099 1.692 1.099 2.653s-0.367 1.919-1.099 2.652l-6.777 6.777-6.777-6.777c-0.732-0.733-1.098-1.691-1.098-2.653s0.366-1.92 1.098-2.652 1.691-1.098 2.652-1.098 1.92 0.366 2.652 1.098l0.883 0.883c0.326 0.326 0.853 0.326 1.178 0l0.885-0.885c0.732-0.732 1.691-1.098 2.652-1.098s1.919 0.367 2.652 1.099zM17.956 3.252c-1.058-1.058-2.445-1.587-3.83-1.588s-2.772 0.528-3.831 1.586l-0.295 0.296-0.294-0.294c-1.058-1.058-2.446-1.587-3.831-1.587s-2.773 0.529-3.831 1.587-1.587 2.446-1.587 3.831 0.529 2.773 1.587 3.831l7.367 7.367c0.326 0.326 0.853 0.326 1.178 0l7.367-7.367c1.058-1.057 1.587-2.445 1.588-3.83s-0.528-2.772-1.588-3.832z"></path>
</svg>
