<!-- Generated by IcoMoon.io -->
<svg version="1.1" xmlns="http://www.w3.org/2000/svg" width="20" height="20" viewBox="0 0 20 20">
<title>repeat</title>
<path d="M3.333 9.167v-1.667c0-0.691 0.279-1.314 0.732-1.768s1.077-0.732 1.767-0.732h9.655l-1.911 1.911c-0.326 0.326-0.326 0.853 0 1.178s0.853 0.326 1.178 0l3.333-3.333c0.080-0.080 0.14-0.172 0.181-0.27s0.063-0.206 0.063-0.319c0-0.108-0.021-0.217-0.063-0.319-0.041-0.098-0.101-0.19-0.181-0.27l-3.333-3.333c-0.326-0.326-0.853-0.326-1.178 0s-0.326 0.853 0 1.178l1.911 1.911h-9.655c-1.15 0-2.193 0.468-2.947 1.22s-1.22 1.797-1.22 2.947v1.667c0 0.46 0.373 0.833 0.833 0.833s0.833-0.373 0.833-0.833zM16.667 10.833v1.667c0 0.691-0.279 1.314-0.733 1.768s-1.077 0.732-1.767 0.732h-9.655l1.911-1.911c0.326-0.326 0.326-0.853 0-1.178s-0.853-0.326-1.178 0l-3.333 3.333c-0.077 0.077-0.138 0.168-0.181 0.27s-0.063 0.211-0.063 0.319c0 0.213 0.082 0.427 0.244 0.589l3.333 3.333c0.326 0.326 0.853 0.326 1.178 0s0.326-0.853 0-1.178l-1.911-1.911h9.655c1.15 0 2.193-0.468 2.947-1.22s1.22-1.797 1.22-2.947v-1.667c0-0.46-0.373-0.833-0.833-0.833s-0.833 0.373-0.833 0.833z"></path>
</svg>
