<svg aria-hidden="true" style="position: absolute; width: 0; height: 0; overflow: hidden;" version="1.1" xmlns="http://www.w3.org/2000/svg" xmlns:xlink="http://www.w3.org/1999/xlink">
<defs>
<symbol id="icon-close" viewBox="0 0 20 20">
<title>close</title>
<path d="M2.928 17.071c-3.905-3.905-3.905-10.237 0-14.142 3.906-3.905 10.237-3.905 14.143 0 3.905 3.905 3.905 10.237 0 14.142-3.906 3.906-10.237 3.906-14.143 0zM15.304 4.696c-2.93-2.929-7.678-2.929-10.607 0-2.93 2.929-2.93 7.678 0 10.607 2.929 2.929 7.677 2.929 10.607 0 2.929-2.929 2.929-7.678 0-10.607zM7.349 14.419l-1.768-1.768 2.651-2.651-2.651-2.651 1.768-1.768 2.651 2.652 2.651-2.652 1.768 1.768-2.651 2.651 2.651 2.651-1.768 1.768-2.651-2.652-2.651 2.652z"></path>
</symbol>
<symbol id="icon-loop-alt3" viewBox="0 0 20 20">
<title>loop-alt3</title>
<path d="M17.5 10v1.25c0 0.689-0.561 1.25-1.25 1.25h-8.752l0.002-2.5-5 3.75 5 3.75-0.002-2.5h8.752c2.068 0 3.75-1.684 3.75-3.75v-1.25h-2.5zM2.5 8.75c0-0.691 0.561-1.25 1.25-1.25h8.75v2.5l4.995-3.75-4.995-3.75v2.5h-8.75c-2.068 0-3.75 1.68-3.75 3.75v1.25h2.5v-1.25z"></path>
</symbol>
<symbol id="icon-minus" viewBox="0 0 20 20">
<title>minus</title>
<path d="M0 8.125v3.75c0 0.345 0.28 0.625 0.625 0.625h18.75c0.345 0 0.625-0.28 0.625-0.625v-3.75c0-0.345-0.28-0.625-0.625-0.625h-18.75c-0.345 0-0.625 0.28-0.625 0.625z"></path>
</symbol>
<symbol id="icon-equalizer" viewBox="0 0 20 20">
<title>equalizer</title>
<path d="M17.5 8.75h0.313c0.516 0 0.938-0.422 0.938-0.938v-3.125c0-0.516-0.422-0.938-0.938-0.938h-0.313v-3.75h-2.5v3.75h-0.313c-0.516 0-0.938 0.422-0.938 0.938v3.125c0 0.516 0.422 0.938 0.938 0.938h0.313v11.25h2.5v-11.25zM15 5h2.5v2.5h-2.5v-2.5zM11.563 16.25c0.516 0 0.938-0.422 0.938-0.938v-3.125c0-0.516-0.422-0.938-0.938-0.938h-0.313v-11.25h-2.5v11.25h-0.313c-0.516 0-0.938 0.422-0.938 0.938v3.125c0 0.516 0.422 0.938 0.938 0.938h0.313v3.75h2.5v-3.75h0.313zM8.75 12.5h2.5v2.5h-2.5v-2.5zM5.313 8.75c0.516 0 0.938-0.422 0.938-0.938v-3.125c0-0.516-0.422-0.938-0.938-0.938h-0.313v-3.75h-2.5v3.75h-0.313c-0.516 0-0.938 0.422-0.938 0.938v3.125c0 0.516 0.422 0.938 0.938 0.938h0.313v11.25h2.5v-11.25h0.313zM2.5 5h2.5v2.5h-2.5v-2.5z"></path>
</symbol>
<symbol id="icon-barcode" viewBox="0 0 20 20">
<title>barcode</title>
<path d="M0 2.5h2.5v12.5h-2.5zM3.75 2.5h1.25v12.5h-1.25zM6.25 2.5h1.25v12.5h-1.25zM10 2.5h1.25v12.5h-1.25zM15 2.5h1.25v12.5h-1.25zM18.75 2.5h1.25v12.5h-1.25zM12.5 2.5h0.625v12.5h-0.625zM8.75 2.5h0.625v12.5h-0.625zM16.875 2.5h0.625v12.5h-0.625zM0 16.25h1.25v1.25h-1.25zM3.75 16.25h1.25v1.25h-1.25zM6.25 16.25h1.25v1.25h-1.25zM12.5 16.25h1.25v1.25h-1.25zM18.75 16.25h1.25v1.25h-1.25zM15 16.25h2.5v1.25h-2.5zM8.75 16.25h2.5v1.25h-2.5z"></path>
</symbol>
<symbol id="icon-star-full" viewBox="0 0 20 20">
<title>star-full</title>
<path d="M16.057 8.64l-4.185-0.608-1.872-3.793-1.872 3.793-4.185 0.608 3.029 2.952-0.715 4.168 3.743-1.968 3.743 1.968-0.715-4.168 3.029-2.952z"></path>
</symbol>
<symbol id="icon-clock" viewBox="0 0 20 20">
<title>clock</title>
<path d="M10 3.75c-3.452 0-6.25 2.798-6.25 6.25s2.798 6.25 6.25 6.25 6.25-2.798 6.25-6.25-2.798-6.25-6.25-6.25zM11.791 12.896l-2.573-2.573v-3.449h1.563v2.801l2.115 2.115-1.105 1.105z"></path>
</symbol>
<symbol id="icon-feed" viewBox="0 0 20 20">
<title>feed</title>
<path d="M8.427 10c0-0.869 0.704-1.573 1.573-1.573s1.573 0.704 1.573 1.573c0 0.869-0.704 1.573-1.573 1.573s-1.573-0.704-1.573-1.573zM11.873 6.54c1.227 0.666 2.061 1.966 2.061 3.46s-0.833 2.794-2.061 3.46c0.542-0.862 0.881-2.093 0.881-3.46s-0.339-2.598-0.881-3.46zM7.246 10c0 1.367 0.339 2.598 0.881 3.46-1.227-0.666-2.061-1.966-2.061-3.46s0.833-2.794 2.061-3.46c-0.542 0.862-0.881 2.093-0.881 3.46zM4.886 10c0 2.113 0.669 4.010 1.729 5.307-1.749-1.118-2.909-3.077-2.909-5.307s1.16-4.189 2.909-5.307c-1.060 1.297-1.729 3.194-1.729 5.307zM13.385 4.693c1.749 1.118 2.909 3.077 2.909 5.307s-1.16 4.189-2.909 5.307c1.060-1.297 1.729-3.194 1.729-5.307s-0.669-4.010-1.729-5.307z"></path>
</symbol>
<symbol id="icon-forward" viewBox="0 0 20 20">
<title>forward</title>
<path d="M10 16.875v-6.25l-6.25 6.25v-13.75l6.25 6.25v-6.25l6.875 6.875z"></path>
</symbol>
<symbol id="icon-backward" viewBox="0 0 20 20">
<title>backward</title>
<path d="M11.25 3.125v6.25l6.25-6.25v13.75l-6.25-6.25v6.25l-6.875-6.875z"></path>
</symbol>
<symbol id="icon-volume-low" viewBox="0 0 20 20">
<title>volume-low</title>
<path d="M10.723 14.473c-0.24 0-0.48-0.092-0.663-0.275-0.366-0.366-0.366-0.96 0-1.326 1.584-1.584 1.584-4.161 0-5.745-0.366-0.366-0.366-0.96 0-1.326s0.96-0.366 1.326 0c2.315 2.315 2.315 6.082 0 8.397-0.183 0.183-0.423 0.274-0.663 0.274z"></path>
<path d="M8.125 18.75c-0.163 0-0.322-0.063-0.442-0.183l-4.817-4.817h-2.241c-0.345 0-0.625-0.28-0.625-0.625v-6.25c0-0.345 0.28-0.625 0.625-0.625h2.241l4.817-4.817c0.179-0.179 0.448-0.232 0.681-0.135s0.386 0.325 0.386 0.577v16.25c0 0.253-0.152 0.481-0.386 0.577-0.077 0.032-0.159 0.048-0.239 0.048z"></path>
</symbol>
<symbol id="icon-podcast" viewBox="0 0 20 20">
<title>podcast</title>
<path d="M20 10c0-5.523-4.477-10-10-10s-10 4.477-10 10c0 4.298 2.712 7.962 6.517 9.376l-0.267 0.624h7.5l-0.267-0.624c3.806-1.414 6.517-5.078 6.517-9.376zM9.508 12.399c-0.445-0.191-0.758-0.634-0.758-1.149 0-0.69 0.56-1.25 1.25-1.25s1.25 0.56 1.25 1.25c0 0.515-0.312 0.958-0.758 1.149l-0.492-1.149-0.492 1.149zM10.513 12.447c1.135-0.237 1.987-1.242 1.987-2.447 0-1.381-1.119-2.5-2.5-2.5s-2.5 1.119-2.5 2.5c0 1.205 0.853 2.209 1.988 2.446l-1.458 3.401c-1.782-0.765-3.030-2.535-3.030-4.597 0-2.761 2.239-5.234 5-5.234s5 2.473 5 5.234c0 2.062-1.248 3.832-3.030 4.597l-1.457-3.4zM13.446 19.291l-1.444-3.369c2.47-0.835 4.248-3.171 4.248-5.922 0-3.452-2.798-6.25-6.25-6.25s-6.25 2.798-6.25 6.25c0 2.751 1.778 5.088 4.248 5.922l-1.444 3.369c-3.117-1.338-5.301-4.434-5.301-8.041 0-4.831 3.916-8.981 8.747-8.981s8.747 4.15 8.747 8.981c0 3.607-2.183 6.704-5.301 8.041z"></path>
</symbol>
<symbol id="icon-music" viewBox="0 0 20 20">
<title>music</title>
<path d="M14.922 4.375h0.703v8.086c0 0.971-1.102 1.758-2.461 1.758s-2.461-0.787-2.461-1.758c0-0.971 1.102-1.758 2.461-1.758 0.689 0 1.311 0.202 1.758 0.528v-4.043l-5.625 1.25v5.43c0 0.971-1.102 1.758-2.461 1.758s-2.461-0.787-2.461-1.758c0-0.971 1.102-1.758 2.461-1.758 0.689 0 1.311 0.202 1.758 0.528v-6.856l6.328-1.406z"></path>
</symbol>
<symbol id="icon-stack" viewBox="0 0 20 20">
<title>stack</title>
<path d="M20 6.25l-10-5-10 5 10 5 10-5zM10 2.91l6.681 3.34-6.681 3.34-6.681-3.34 6.681-3.34zM17.997 8.998l2.003 1.002-10 5-10-5 2.003-1.002 7.997 3.998zM17.997 12.748l2.003 1.002-10 5-10-5 2.003-1.002 7.997 3.998z"></path>
</symbol>
<symbol id="icon-music1" viewBox="0 0 20 20">
<title>music1</title>
<path d="M18.75 0h1.25v14.375c0 1.726-1.959 3.125-4.375 3.125s-4.375-1.399-4.375-3.125c0-1.726 1.959-3.125 4.375-3.125 1.224 0 2.331 0.359 3.125 0.938v-7.188l-10 2.222v9.653c0 1.726-1.959 3.125-4.375 3.125s-4.375-1.399-4.375-3.125c0-1.726 1.959-3.125 4.375-3.125 1.224 0 2.331 0.359 3.125 0.938v-12.188l11.25-2.5z"></path>
</symbol>
<symbol id="icon-podcast1" viewBox="0 0 20 20">
<title>podcast1</title>
<path d="M20 10c0-5.523-4.477-10-10-10s-10 4.477-10 10c0 4.298 2.712 7.962 6.517 9.376l-0.267 0.624h7.5l-0.267-0.624c3.806-1.414 6.517-5.078 6.517-9.376zM9.508 12.399c-0.445-0.191-0.758-0.634-0.758-1.149 0-0.69 0.56-1.25 1.25-1.25s1.25 0.56 1.25 1.25c0 0.515-0.312 0.958-0.758 1.149l-0.492-1.149-0.492 1.149zM10.513 12.447c1.135-0.237 1.987-1.242 1.987-2.447 0-1.381-1.119-2.5-2.5-2.5s-2.5 1.119-2.5 2.5c0 1.205 0.853 2.209 1.988 2.446l-1.458 3.401c-1.782-0.765-3.030-2.535-3.030-4.597 0-2.761 2.239-5.234 5-5.234s5 2.473 5 5.234c0 2.062-1.248 3.832-3.030 4.597l-1.457-3.4zM13.446 19.291l-1.444-3.369c2.47-0.835 4.248-3.171 4.248-5.922 0-3.452-2.798-6.25-6.25-6.25s-6.25 2.798-6.25 6.25c0 2.751 1.778 5.088 4.248 5.922l-1.444 3.369c-3.117-1.338-5.301-4.434-5.301-8.041 0-4.831 3.916-8.981 8.747-8.981s8.747 4.15 8.747 8.981c0 3.607-2.183 6.704-5.301 8.041z"></path>
</symbol>
<symbol id="icon-media-play" viewBox="0 0 20 20">
<title>media-play</title>
<path d="M8.663 15.361c2.201-2.145 5.503-5.361 5.503-5.361s-3.302-3.216-5.503-5.361c-0.303-0.291-0.711-0.473-1.163-0.473-0.92 0-1.667 0.747-1.667 1.667v8.333c0 0.92 0.747 1.667 1.667 1.667 0.453 0 0.861-0.182 1.163-0.473z"></path>
</symbol>
<symbol id="icon-arrow-shuffle" viewBox="0 0 20 20">
<title>arrow-shuffle</title>
<path d="M3.333 7.5h2.917c0.613 0 1.161 0.326 1.543 0.834 0.271-0.503 0.607-0.969 0.992-1.385-0.669-0.686-1.555-1.116-2.535-1.116h-2.917c-0.461 0-0.833 0.373-0.833 0.833s0.373 0.833 0.833 0.833z"></path>
<path d="M9.738 10.092c0.459-1.381 1.88-2.592 3.041-2.592h1.532l-1.078 1.078c-0.326 0.326-0.326 0.852 0 1.178 0.163 0.163 0.376 0.244 0.589 0.244s0.427-0.082 0.589-0.244l3.089-3.089-3.089-3.089c-0.326-0.326-0.853-0.326-1.178 0s-0.326 0.852 0 1.178l1.078 1.078h-1.532c-1.895 0-3.926 1.639-4.623 3.732l-0.393 1.176c-0.534 1.605-1.727 2.592-2.346 2.592h-2.083c-0.461 0-0.833 0.373-0.833 0.833s0.373 0.833 0.833 0.833h2.083c1.531 0 3.219-1.604 3.928-3.732l0.393-1.175z"></path>
<path d="M13.232 11.078c-0.326 0.326-0.326 0.852 0 1.178l1.078 1.078h-1.948c-1.057 0-1.942-0.742-2.242-1.757-0.213 0.625-0.523 1.249-0.908 1.821 0.738 0.968 1.869 1.603 3.151 1.603h1.948l-1.078 1.078c-0.326 0.326-0.326 0.852 0 1.178 0.163 0.163 0.376 0.244 0.589 0.244s0.427-0.082 0.589-0.244l3.089-3.089-3.089-3.089c-0.326-0.326-0.853-0.326-1.178 0z"></path>
</symbol>
<symbol id="icon-repeat" viewBox="0 0 20 20">
<title>repeat</title>
<path d="M3.333 9.167v-1.667c0-0.691 0.279-1.314 0.732-1.768s1.077-0.732 1.767-0.732h9.655l-1.911 1.911c-0.326 0.326-0.326 0.853 0 1.178s0.853 0.326 1.178 0l3.333-3.333c0.080-0.080 0.14-0.172 0.181-0.27s0.063-0.206 0.063-0.319c0-0.108-0.021-0.217-0.063-0.319-0.041-0.098-0.101-0.19-0.181-0.27l-3.333-3.333c-0.326-0.326-0.853-0.326-1.178 0s-0.326 0.853 0 1.178l1.911 1.911h-9.655c-1.15 0-2.193 0.468-2.947 1.22s-1.22 1.797-1.22 2.947v1.667c0 0.46 0.373 0.833 0.833 0.833s0.833-0.373 0.833-0.833zM16.667 10.833v1.667c0 0.691-0.279 1.314-0.733 1.768s-1.077 0.732-1.767 0.732h-9.655l1.911-1.911c0.326-0.326 0.326-0.853 0-1.178s-0.853-0.326-1.178 0l-3.333 3.333c-0.077 0.077-0.138 0.168-0.181 0.27s-0.063 0.211-0.063 0.319c0 0.213 0.082 0.427 0.244 0.589l3.333 3.333c0.326 0.326 0.853 0.326 1.178 0s0.326-0.853 0-1.178l-1.911-1.911h9.655c1.15 0 2.193-0.468 2.947-1.22s1.22-1.797 1.22-2.947v-1.667c0-0.46-0.373-0.833-0.833-0.833s-0.833 0.373-0.833 0.833z"></path>
</symbol>
<symbol id="icon-heart1" viewBox="0 0 20 20">
<title>heart1</title>
<path d="M16.777 4.431c0.733 0.734 1.099 1.692 1.099 2.653s-0.367 1.919-1.099 2.652l-6.777 6.777-6.777-6.777c-0.732-0.733-1.098-1.691-1.098-2.653s0.366-1.92 1.098-2.652 1.691-1.098 2.652-1.098 1.92 0.366 2.652 1.098l0.883 0.883c0.326 0.326 0.853 0.326 1.178 0l0.885-0.885c0.732-0.732 1.691-1.098 2.652-1.098s1.919 0.367 2.652 1.099zM17.956 3.252c-1.058-1.058-2.445-1.587-3.83-1.588s-2.772 0.528-3.831 1.586l-0.295 0.296-0.294-0.294c-1.058-1.058-2.446-1.587-3.831-1.587s-2.773 0.529-3.831 1.587-1.587 2.446-1.587 3.831 0.529 2.773 1.587 3.831l7.367 7.367c0.326 0.326 0.853 0.326 1.178 0l7.367-7.367c1.058-1.057 1.587-2.445 1.588-3.83s-0.528-2.772-1.588-3.832z"></path>
</symbol>
<symbol id="icon-bluetooth_searching" viewBox="0 0 20 20">
<title>bluetooth_searching</title>
<path d="M10.742 13.594l-1.563-1.602v3.164zM9.18 4.844v3.164l1.563-1.602zM13.086 6.406l-3.594 3.594 3.594 3.594-4.766 4.727h-0.82v-6.328l-3.828 3.828-1.172-1.172 4.648-4.648-4.648-4.648 1.172-1.172 3.828 3.828v-6.328h0.82zM16.289 5.586q1.211 1.953 1.211 4.336 0 2.344-1.289 4.414l-0.977-0.977q0.82-1.641 0.82-3.359t-0.82-3.359zM11.875 10l1.914-1.914q0.391 0.977 0.391 1.914 0 0.977-0.391 1.953z"></path>
</symbol>
<symbol id="icon-format_list_bulleted" viewBox="0 0 20 20">
<title>format_list_bulleted</title>
<path d="M5.82 4.18h11.68v1.641h-11.68v-1.641zM5.82 10.82v-1.641h11.68v1.641h-11.68zM5.82 15.82v-1.641h11.68v1.641h-11.68zM3.32 13.75q0.508 0 0.879 0.371t0.371 0.879-0.371 0.879-0.879 0.371-0.879-0.371-0.371-0.879 0.371-0.879 0.879-0.371zM3.32 3.75q0.508 0 0.879 0.352t0.371 0.898-0.371 0.898-0.879 0.352-0.879-0.352-0.371-0.898 0.371-0.898 0.879-0.352zM3.32 8.75q0.508 0 0.879 0.352t0.371 0.898-0.371 0.898-0.879 0.352-0.879-0.352-0.371-0.898 0.371-0.898 0.879-0.352z"></path>
</symbol>
<symbol id="icon-clear" viewBox="0 0 20 20">
<title>clear</title>
<path d="M15.82 5.352l-4.648 4.648 4.648 4.648-1.172 1.172-4.648-4.648-4.648 4.648-1.172-1.172 4.648-4.648-4.648-4.648 1.172-1.172 4.648 4.648 4.648-4.648z"></path>
</symbol>
<symbol id="icon-music_note" viewBox="0 0 20 20">
<title>music_note</title>
<path d="M10 3.333h4.444v2.951h-2.951v7.431q0 1.215-0.885 2.083t-2.101 0.868-2.083-0.868-0.868-2.083 0.868-2.101 2.083-0.885q0.729 0 1.493 0.417v-7.813z"></path>
</symbol>
<symbol id="icon-panorama_fish_eye" viewBox="0 0 20 20">
<title>panorama_fish_eye</title>
<path d="M10 16.68q2.734 0 4.707-1.973t1.973-4.707-1.973-4.707-4.707-1.973-4.707 1.973-1.973 4.707 1.973 4.707 4.707 1.973zM10 1.68q3.438 0 5.879 2.441t2.441 5.879-2.441 5.879-5.879 2.441-5.879-2.441-2.441-5.879 2.441-5.879 5.879-2.441z"></path>
</symbol>
<symbol id="icon-play" viewBox="0 0 20 20">
<title>play</title>
<path d="M3.75 2.5l12.5 7.5-12.5 7.5z"></path>
</symbol>
<symbol id="icon-stack1" viewBox="0 0 32 32">
<title>stack1</title>
<path d="M24.841 12.666l-8.841-6.053-8.841 6.053 8.841 6.052 8.841-6.052zM16 20.069l-7.803-5.145-1.037 1.076 8.841 6.052 8.841-6.052-1.051-1.099-7.79 5.169zM16 23.404l-7.803-5.145-1.037 1.076 8.841 6.052 8.841-6.052-1.051-1.099-7.79 5.169z"></path>
</symbol>
<symbol id="icon-minus1" viewBox="0 0 32 32">
<title>minus1</title>
<path d="M16 3c-7.18 0-13 5.82-13 13s5.82 13 13 13 13-5.82 13-13-5.82-13-13-13zM16 26c-5.522 0-10-4.478-10-10 0-5.523 4.478-10 10-10 5.523 0 10 4.477 10 10 0 5.522-4.477 10-10 10zM19.738 15h-8c-0.553 0-1 0.448-1 1 0 0.553 0.447 1 1 1h8c0.553 0 1-0.447 1-1 0-0.552-0.447-1-1-1z"></path>
</symbol>
<symbol id="icon-cancel" viewBox="0 0 32 32">
<title>cancel</title>
<path d="M16 29c-7.18 0-13-5.82-13-13s5.82-13 13-13 13 5.82 13 13-5.82 13-13 13zM16 6c-5.522 0-10 4.478-10 10s4.478 10 10 10c5.523 0 10-4.478 10-10s-4.477-10-10-10zM20.537 19.535l-1.014 1.014c-0.186 0.186-0.488 0.186-0.675 0l-2.87-2.87-2.87 2.87c-0.187 0.186-0.488 0.186-0.675 0l-1.014-1.014c-0.186-0.186-0.186-0.488 0-0.675l2.871-2.869-2.871-2.87c-0.186-0.187-0.186-0.489 0-0.676l1.014-1.013c0.187-0.187 0.488-0.187 0.675 0l2.87 2.87 2.87-2.87c0.187-0.187 0.489-0.187 0.675 0l1.014 1.013c0.186 0.187 0.186 0.489 0 0.676l-2.871 2.87 2.871 2.869c0.186 0.187 0.186 0.49 0 0.675z"></path>
</symbol>
<symbol id="icon-chat" viewBox="0 0 32 32">
<title>chat</title>
<path d="M25.785 4.952h-19.57c-1.235 0-2.236 1.002-2.236 2.236v12.488c0 1.234 1.001 2.236 2.236 2.236h3.729l0.001 5.137 5.704-5.137h10.137c1.236 0 2.236-1.002 2.236-2.236v-12.488c-0.001-1.234-1.001-2.236-2.237-2.236zM10 13.969c-0.553 0-1-0.448-1-1 0-0.553 0.447-1 1-1 0.552 0 1 0.447 1 1 0 0.552-0.448 1-1 1zM14 13.927c-0.553 0-1-0.448-1-1 0-0.553 0.447-1 1-1 0.552 0 1 0.447 1 1 0 0.552-0.448 1-1 1zM18.020 13.948c-0.552 0-1-0.447-1-1 0-0.552 0.448-1 1-1 0.553 0 1 0.448 1 1s-0.448 1-1 1zM22 13.969c-0.553 0-1-0.448-1-1 0-0.553 0.447-1 1-1 0.552 0 1 0.447 1 1 0 0.552-0.448 1-1 1z"></path>
</symbol>
<symbol id="icon-search" viewBox="0 0 32 32">
<title>search</title>
<path d="M19.427 20.427c-1.39 0.99-3.090 1.573-4.927 1.573-4.694 0-8.5-3.806-8.5-8.5s3.806-8.5 8.5-8.5c4.694 0 8.5 3.806 8.5 8.5 0 2.347-0.951 4.472-2.49 6.010l5.997 5.997c0.275 0.275 0.268 0.716-0.008 0.992-0.278 0.278-0.72 0.28-0.992 0.008l-6.081-6.081zM14.5 21c4.142 0 7.5-3.358 7.5-7.5s-3.358-7.5-7.5-7.5c-4.142 0-7.5 3.358-7.5 7.5s3.358 7.5 7.5 7.5v0z"></path>
</symbol>
<symbol id="icon-star" viewBox="0 0 32 32">
<title>star</title>
<path d="M16 23l9 6-4-10 9-6h-10l-4-10-4 10h-10l9 6-4 10 9-6zM16 21.753l-6.8 4.547 3.2-7.7-7.2-4.6h7.5l3.3-8.5 3.3 8.5h7.5l-7.2 4.6 3.2 7.7-6.8-4.547z"></path>
</symbol>
<symbol id="icon-close-outline" viewBox="0 0 20 20">
<title>close-outline</title>
<path d="M2.93 17.070c-1.884-1.821-3.053-4.37-3.053-7.193 0-5.523 4.477-10 10-10 2.823 0 5.372 1.169 7.19 3.050l0.003 0.003c1.737 1.796 2.807 4.247 2.807 6.947 0 5.523-4.477 10-10 10-2.7 0-5.151-1.070-6.95-2.81l0.003 0.003zM4.34 15.66c1.449 1.449 3.45 2.344 5.66 2.344 4.421 0 8.004-3.584 8.004-8.004 0-2.21-0.896-4.211-2.344-5.66v0c-1.449-1.449-3.45-2.344-5.66-2.344-4.421 0-8.004 3.584-8.004 8.004 0 2.21 0.896 4.211 2.344 5.66v0zM14.24 7.17l-2.83 2.83 2.83 2.83-1.41 1.41-2.83-2.83-2.83 2.83-1.41-1.41 2.83-2.83-2.83-2.83 1.41-1.41 2.83 2.83 2.83-2.83 1.41 1.41z"></path>
</symbol>
<symbol id="icon-music-playlist" viewBox="0 0 20 20">
<title>music-playlist</title>
<path d="M16 17c0 1.657-1.343 3-3 3v0h-2c-1.657 0-3-1.343-3-3s1.343-3 3-3v0h2c0.001 0 0.003 0 0.004 0 0.357 0 0.699 0.062 1.016 0.177l-0.021-0.007v-13.17l6-1v4l-4 0.67v12.33zM0 3h12v2h-12v-2zM0 7h12v2h-12v-2zM0 11h12v2h-12v-2zM0 15h6v2h-6v-2z"></path>
</symbol>
<symbol id="icon-time1" viewBox="0 0 20 20">
<title>time1</title>
<path d="M10 20c-5.523 0-10-4.477-10-10s4.477-10 10-10v0c5.523 0 10 4.477 10 10s-4.477 10-10 10v0zM10 18c4.418 0 8-3.582 8-8s-3.582-8-8-8v0c-4.418 0-8 3.582-8 8s3.582 8 8 8v0zM9 10.41v-6.41h2v5.59l3.95 3.95-1.41 1.41-4.54-4.54z"></path>
</symbol>
<symbol id="icon-heart" viewBox="0 0 20 20">
<title>heart</title>
<path d="M7.044 5.24c1.081 0 2.011 0.879 2.441 1.797 0.431-0.918 1.361-1.797 2.442-1.797 1.49 0 2.699 1.209 2.699 2.699 0 3.031-3.057 3.825-5.141 6.821-1.969-2.978-5.14-3.888-5.14-6.821 0-1.49 1.209-2.699 2.699-2.699z"></path>
</symbol>
<symbol id="icon-select-arrows" viewBox="0 0 20 20">
<title>select-arrows</title>
<path d="M10 1l-5 7h10l-5-7zM10 19l5-7h-10l5 7z"></path>
</symbol>
<symbol id="icon-magnifying-glass" viewBox="0 0 20 20">
<title>magnifying-glass</title>
<path d="M17.545 15.467l-3.779-3.779c0.57-0.935 0.898-2.035 0.898-3.21 0-3.417-2.961-6.377-6.378-6.377s-6.186 2.769-6.186 6.186c0 3.416 2.961 6.377 6.377 6.377 1.137 0 2.2-0.309 3.115-0.844l3.799 3.801c0.372 0.371 0.975 0.371 1.346 0l0.943-0.943c0.371-0.371 0.236-0.84-0.135-1.211zM4.004 8.287c0-2.366 1.917-4.283 4.282-4.283s4.474 2.107 4.474 4.474c0 2.365-1.918 4.283-4.283 4.283s-4.473-2.109-4.473-4.474z"></path>
</symbol>
<symbol id="icon-minus11" viewBox="0 0 20 20">
<title>minus11</title>
<path d="M16 10c0 0.553-0.048 1-0.601 1h-10.798c-0.552 0-0.601-0.447-0.601-1s0.049-1 0.601-1h10.799c0.552 0 0.6 0.447 0.6 1z"></path>
</symbol>
<symbol id="icon-modern-mic" viewBox="0 0 20 20">
<title>modern-mic</title>
<path d="M4.153 10.594c-0.147 0.099-0.195 0.307-0.106 0.46l0.864 1.496c0.089 0.153 0.292 0.217 0.451 0.139l2.638-1.278v4.588h1.333v-5.235l2.713-1.315-1.746-3.026-6.147 4.171zM15.637 5.359c-0.747-1.293-2.402-1.736-3.696-0.989-0.606 0.35-1.005 0.906-1.2 1.526l1.984 3.437c0.634 0.141 1.315 0.073 1.923-0.277 1.294-0.747 1.738-2.401 0.99-3.696z"></path>
</symbol>
<symbol id="icon-pinterest-with-circle" viewBox="0 0 20 20">
<title>pinterest-with-circle</title>
<path d="M10 0.4c-5.302 0-9.6 4.298-9.6 9.6s4.298 9.6 9.6 9.6 9.6-4.298 9.6-9.6-4.298-9.6-9.6-9.6zM10.657 12.275c-0.616-0.047-0.874-0.352-1.356-0.644-0.265 1.391-0.589 2.725-1.549 3.422-0.297-2.104 0.434-3.682 0.774-5.359-0.579-0.975 0.069-2.936 1.291-2.454 1.503 0.596-1.302 3.625 0.581 4.004 1.966 0.394 2.769-3.412 1.55-4.648-1.762-1.787-5.127-0.041-4.713 2.517 0.1 0.625 0.747 0.815 0.258 1.678-1.127-0.25-1.464-1.139-1.42-2.324 0.069-1.94 1.743-3.299 3.421-3.486 2.123-0.236 4.115 0.779 4.391 2.777 0.309 2.254-0.959 4.693-3.228 4.517z"></path>
</symbol>
<symbol id="icon-volume-down" viewBox="0 0 18 28">
<title>volume-down</title>
<path d="M12 5.5v17c0 0.547-0.453 1-1 1-0.266 0-0.516-0.109-0.703-0.297l-5.203-5.203h-4.094c-0.547 0-1-0.453-1-1v-6c0-0.547 0.453-1 1-1h4.094l5.203-5.203c0.187-0.187 0.438-0.297 0.703-0.297 0.547 0 1 0.453 1 1zM18 14c0 1.563-0.953 3.078-2.422 3.672-0.125 0.063-0.266 0.078-0.391 0.078-0.547 0-1-0.438-1-1 0-1.188 1.813-0.859 1.813-2.75s-1.813-1.563-1.813-2.75c0-0.562 0.453-1 1-1 0.125 0 0.266 0.016 0.391 0.078 1.469 0.578 2.422 2.109 2.422 3.672z"></path>
</symbol>
<symbol id="icon-bars" viewBox="0 0 24 28">
<title>bars</title>
<path d="M24 21v2c0 0.547-0.453 1-1 1h-22c-0.547 0-1-0.453-1-1v-2c0-0.547 0.453-1 1-1h22c0.547 0 1 0.453 1 1zM24 13v2c0 0.547-0.453 1-1 1h-22c-0.547 0-1-0.453-1-1v-2c0-0.547 0.453-1 1-1h22c0.547 0 1 0.453 1 1zM24 5v2c0 0.547-0.453 1-1 1h-22c-0.547 0-1-0.453-1-1v-2c0-0.547 0.453-1 1-1h22c0.547 0 1 0.453 1 1z"></path>
</symbol>
<symbol id="icon-apple" viewBox="0 0 22 28">
<title>apple</title>
<path d="M21.766 18.984c-0.391 1.234-1.016 2.547-1.922 3.906-1.344 2.047-2.688 3.063-4.016 3.063-0.531 0-1.25-0.172-2.188-0.5-0.922-0.344-1.719-0.5-2.359-0.5-0.625 0-1.375 0.172-2.219 0.516-0.859 0.359-1.547 0.531-2.063 0.531-1.609 0-3.156-1.359-4.703-4.047-1.516-2.688-2.297-5.297-2.297-7.859 0-2.391 0.594-4.328 1.766-5.844 1.172-1.5 2.641-2.25 4.438-2.25 0.766 0 1.672 0.156 2.766 0.469 1.078 0.313 1.797 0.469 2.156 0.469 0.453 0 1.203-0.172 2.234-0.531 1.031-0.344 1.937-0.531 2.703-0.531 1.25 0 2.359 0.344 3.328 1.016 0.547 0.375 1.094 0.906 1.625 1.563-0.812 0.688-1.406 1.297-1.781 1.844-0.672 0.969-1.016 2.047-1.016 3.234 0 1.281 0.359 2.453 1.078 3.484s1.547 1.687 2.469 1.969zM15.891 0.656c0 0.641-0.156 1.359-0.453 2.125-0.313 0.781-0.797 1.5-1.453 2.156-0.562 0.562-1.125 0.938-1.687 1.125-0.359 0.109-0.891 0.203-1.625 0.266 0.031-1.547 0.438-2.891 1.219-4.016s2.094-1.891 3.906-2.312c0.031 0.141 0.063 0.25 0.078 0.344 0 0.109 0.016 0.203 0.016 0.313z"></path>
</symbol>
<symbol id="icon-applemusic" viewBox="0 0 20 20">
<title>applemusic</title>
<path d="M19.997 5.103c0-0.615-0.054-1.225-0.2-1.825-0.264-1.092-0.885-1.925-1.817-2.536-0.478-0.312-1.003-0.505-1.564-0.606-0.431-0.077-0.865-0.112-1.303-0.125-0.033-0.003-0.069-0.008-0.103-0.011h-10.020c-0.127 0.008-0.252 0.014-0.379 0.022-0.623 0.036-1.242 0.103-1.827 0.334-1.113 0.442-1.917 1.21-2.387 2.317-0.16 0.373-0.243 0.771-0.302 1.173-0.047 0.327-0.073 0.654-0.083 0.983 0 0.027-0.006 0.052-0.008 0.077v10.186c0.008 0.117 0.014 0.236 0.022 0.353 0.042 0.679 0.128 1.353 0.414 1.977 0.542 1.183 1.448 1.961 2.695 2.335 0.35 0.106 0.713 0.156 1.078 0.19 0.462 0.044 0.925 0.050 1.389 0.050h9.192c0.438 0 0.873-0.028 1.308-0.083 0.686-0.088 1.331-0.292 1.913-0.675 0.7-0.461 1.227-1.073 1.567-1.84 0.155-0.35 0.244-0.725 0.308-1.103 0.094-0.563 0.115-1.132 0.114-1.7-0.002-3.167 0-6.329-0.005-9.494zM14.645 8.428v4.76c0 0.348-0.048 0.689-0.203 1.005-0.242 0.492-0.633 0.802-1.157 0.95-0.292 0.083-0.588 0.131-0.892 0.144-0.792 0.037-1.477-0.5-1.619-1.28-0.118-0.644 0.189-1.353 0.865-1.685 0.269-0.133 0.558-0.208 0.848-0.27 0.315-0.068 0.632-0.127 0.945-0.2 0.228-0.053 0.381-0.192 0.425-0.43 0.012-0.052 0.017-0.108 0.017-0.161 0-1.512 0-3.025-0.002-4.536 0-0.052-0.008-0.104-0.022-0.154-0.033-0.125-0.125-0.202-0.253-0.195-0.133 0.008-0.265 0.029-0.396 0.055-0.633 0.125-1.267 0.253-1.9 0.38l-3.083 0.623c-0.013 0.002-0.027 0.008-0.040 0.011-0.231 0.064-0.314 0.169-0.325 0.408-0.002 0.035 0 0.072 0 0.108-0.002 2.168 0 4.337-0.002 6.504 0 0.35-0.039 0.697-0.179 1.022-0.232 0.533-0.642 0.867-1.195 1.027-0.292 0.083-0.592 0.133-0.896 0.143-0.8 0.030-1.463-0.5-1.6-1.287-0.117-0.677 0.192-1.404 0.962-1.729 0.298-0.125 0.608-0.193 0.923-0.258 0.239-0.050 0.479-0.097 0.717-0.147 0.319-0.069 0.486-0.269 0.5-0.595v-0.125c0-2.467 0-4.935 0.002-7.402 0-0.103 0.011-0.208 0.035-0.308 0.058-0.237 0.228-0.373 0.455-0.432 0.212-0.055 0.429-0.093 0.645-0.137 0.611-0.125 1.222-0.247 1.833-0.37l1.892-0.383c0.558-0.112 1.117-0.225 1.675-0.336 0.183-0.036 0.369-0.073 0.553-0.088 0.258-0.021 0.436 0.142 0.462 0.402 0.007 0.061 0.010 0.123 0.010 0.186 0.002 1.592 0.002 3.185 0.001 4.779z"></path>
</symbol>
</defs>
</svg>
